<?xml version="1.0" encoding="utf-8"?>
<!-- Generator: Adobe Illustrator 16.0.0, SVG Export Plug-In . SVG Version: 6.00 Build 0)  -->
<!DOCTYPE svg PUBLIC "-//W3C//DTD SVG 1.1//EN" "http://www.w3.org/Graphics/SVG/1.1/DTD/svg11.dtd">
<svg version="1.1" id="Слой_1" xmlns="http://www.w3.org/2000/svg" xmlns:xlink="http://www.w3.org/1999/xlink" x="0px" y="0px"
	 width="36px" height="36px" viewBox="0 0 36 36" enable-background="new 0 0 36 36" xml:space="preserve">
<path opacity="0.5" fill="#FFFFFF" d="M31.53,8.335c0,0-0.379,0-2.569,0L36,1.295L34.703,0l-7.8,7.8
	c-0.991-1.056-2.326-3.33-3.11-3.33c-2.507,0-7.171,0-9.676,0c-1.021,0-2.971,3.865-3.885,3.865c-3.338,0-3.825,0-3.825,0
	c-1.6,0-2.898,1.299-2.898,2.9v15.459c0,1.217,0.755,2.253,1.818,2.681L0,34.703L1.297,36l6.407-6.407H31.53
	c1.6,0,2.897-1.299,2.897-2.899V11.235C34.427,9.634,33.13,8.335,31.53,8.335z M5.441,25.729V12.2c0-1.067,0.865-1.932,1.932-1.932
	c0,0,1.026,0,3.843,0c0.893,0,2.835-3.865,3.857-3.865c2.479,0,5.227,0,7.712,0c0.676,0,1.76,1.696,2.674,2.84l-2.992,2.992
	c-1.024-0.623-2.213-1-3.499-1c-3.735,0-6.765,3.027-6.765,6.762c0,1.286,0.379,2.477,1.003,3.499l-6.11,6.11
	C6.167,27.466,5.441,26.698,5.441,25.729z M23.81,17.997c0,2.675-2.168,4.844-4.842,4.844c-1.25,0-2.367-0.507-3.226-1.286
	l6.782-6.784C23.305,15.63,23.81,16.747,23.81,17.997z M14.126,17.997c0-2.673,2.168-4.842,4.842-4.842
	c0.751,0,1.439,0.203,2.072,0.507l-6.407,6.406C14.329,19.436,14.126,18.748,14.126,17.997z M32.495,25.729
	c0,1.067-0.865,1.933-1.933,1.933H9.636l4.73-4.732c1.209,1.128,2.819,1.832,4.602,1.832c3.735,0,6.764-3.027,6.764-6.764
	c0-1.783-0.704-3.393-1.832-4.6l3.127-3.129c2.528,0,3.535,0,3.535,0c1.067,0,1.933,0.865,1.933,1.932V25.729z"/>
</svg>
