<?xml version="1.0" encoding="utf-8"?>
<!-- Generator: Adobe Illustrator 16.0.0, SVG Export Plug-In . SVG Version: 6.00 Build 0)  -->
<!DOCTYPE svg PUBLIC "-//W3C//DTD SVG 1.1//EN" "http://www.w3.org/Graphics/SVG/1.1/DTD/svg11.dtd">
<svg version="1.1" id="Слой_1" xmlns="http://www.w3.org/2000/svg" xmlns:xlink="http://www.w3.org/1999/xlink" x="0px" y="0px"
	 width="15.838px" height="19.509px" viewBox="0 0 15.838 19.509" enable-background="new 0 0 15.838 19.509" xml:space="preserve">
<path fill="#BDBBAC" d="M14.338,2.563v15.446h-1.156c-0.656-2.328-2.8-4.039-5.336-4.039s-4.681,1.711-5.336,4.039H1.5V2.563h0.874
	H2.75h1.5h2.728h0.381h1.5h2.724h1.5h0.379H14.338 M11.583,0v1.063H8.859V0H6.979v1.063H4.25V0L2.374,0.002v1.061H0v18.446h3.803
	c0-2.233,1.81-4.039,4.043-4.039c2.231,0,4.043,1.806,4.043,4.039h3.949V1.063h-2.375V0.002L11.583,0L11.583,0z"/>
</svg>
