<?xml version="1.0" encoding="utf-8"?>
<!-- Generator: Adobe Illustrator 16.0.0, SVG Export Plug-In . SVG Version: 6.00 Build 0)  -->
<!DOCTYPE svg PUBLIC "-//W3C//DTD SVG 1.1//EN" "http://www.w3.org/Graphics/SVG/1.1/DTD/svg11.dtd">
<svg version="1.1" id="Слой_1" xmlns="http://www.w3.org/2000/svg" xmlns:xlink="http://www.w3.org/1999/xlink" x="0px" y="0px"
	 width="52px" height="41.441px" viewBox="0 0 52 41.441" enable-background="new 0 0 52 41.441" xml:space="preserve">
<path fill="#FFFFFF" d="M16.445,2.475l2.75,3.849c-2.296,1.446-4.23,3.238-5.768,5.348c-2.039,2.797-3.073,6.311-3.073,10.444v2.56
	l2.484-0.62c0.211-0.053,0.715-0.141,1.707-0.141c2.053,0,3.516,0.644,4.602,2.024c1.188,1.514,1.766,3.327,1.766,5.541
	c0,2.483-0.761,4.375-2.327,5.785c-1.628,1.465-3.667,2.177-6.232,2.177c-3.053,0-5.484-0.975-7.434-2.982
	C2.982,34.468,2,31.384,2,27.294c0-4.108,0.588-7.643,1.748-10.507c1.181-2.922,2.619-5.429,4.276-7.453
	c1.667-2.04,3.405-3.687,5.165-4.899C14.378,3.616,15.468,2.96,16.445,2.475 M45.532,2.476l2.75,3.849
	c-2.294,1.446-4.228,3.238-5.768,5.347c-2.039,2.797-3.073,6.311-3.073,10.444v2.56l2.484-0.62c0.211-0.053,0.715-0.141,1.707-0.141
	c2.054,0,3.518,0.644,4.604,2.023C49.423,27.453,50,29.266,50,31.479c0,2.484-0.761,4.376-2.325,5.785
	c-1.628,1.465-3.668,2.177-6.234,2.177c-3.054,0-5.484-0.975-7.432-2.982c-1.938-1.991-2.921-5.074-2.921-9.165
	c0-4.11,0.588-7.644,1.748-10.507c1.18-2.92,2.618-5.427,4.275-7.451c1.671-2.041,3.409-3.689,5.167-4.9
	C43.467,3.616,44.557,2.96,45.532,2.476 M46.222,0c-1.463,0.531-3.156,1.463-5.079,2.789c-1.927,1.327-3.786,3.088-5.58,5.279
	c-1.793,2.191-3.322,4.85-4.582,7.969c-1.265,3.123-1.893,6.873-1.893,11.256c0,4.651,1.161,8.17,3.488,10.56
	c2.321,2.392,5.28,3.587,8.865,3.587c3.054,0,5.58-0.898,7.572-2.689C51.005,36.958,52,34.536,52,31.479
	c0-2.655-0.731-4.913-2.191-6.775c-1.463-1.859-3.522-2.789-6.178-2.789c-0.93,0-1.662,0.069-2.19,0.201
	c0-3.719,0.896-6.806,2.689-9.266c1.793-2.457,4.15-4.414,7.073-5.877L46.222,0L46.222,0z M17.134,0
	c-1.463,0.531-3.158,1.463-5.081,2.789c-1.928,1.327-3.786,3.088-5.578,5.279c-1.794,2.191-3.322,4.85-4.583,7.969
	C0.628,19.161,0,22.91,0,27.294c0,4.651,1.161,8.17,3.486,10.56c2.323,2.392,5.28,3.587,8.867,3.587c3.052,0,5.578-0.898,7.57-2.689
	c1.992-1.794,2.989-4.216,2.989-7.272c0-2.655-0.731-4.913-2.193-6.775c-1.463-1.859-3.521-2.789-6.175-2.789
	c-0.93,0-1.662,0.069-2.191,0.201c0-3.719,0.896-6.806,2.689-9.266c1.792-2.457,4.149-4.414,7.073-5.877L17.134,0L17.134,0z"/>
</svg>
