<?xml version="1.0" encoding="utf-8"?>
<!-- Generator: Adobe Illustrator 16.0.0, SVG Export Plug-In . SVG Version: 6.00 Build 0)  -->
<!DOCTYPE svg PUBLIC "-//W3C//DTD SVG 1.1//EN" "http://www.w3.org/Graphics/SVG/1.1/DTD/svg11.dtd">
<svg version="1.1" id="Слой_1" xmlns="http://www.w3.org/2000/svg" xmlns:xlink="http://www.w3.org/1999/xlink" x="0px" y="0px"
	 width="18px" height="30.195px" viewBox="0 0 18 30.195" enable-background="new 0 0 18 30.195" xml:space="preserve">
<path fill="#BDBBAC" d="M14.619,28.71c0.163-0.132,0.326-0.268,0.48-0.413c0.014-0.013,0.024-0.029,0.036-0.043
	c1.76-1.647,2.86-3.989,2.86-6.586V7.497C17.998,7.442,18,7.395,18,7.349c0-1.243-1.011-2.253-2.252-2.253
	c-0.405,0-0.789,0.104-1.129,0.302v-1.31c0.004-0.055,0.006-0.103,0.006-0.148c0-1.242-1.011-2.253-2.254-2.253
	c-0.403,0-0.79,0.105-1.129,0.303C11.112,0.872,10.158,0,9.005,0C7.85,0,6.894,0.875,6.768,1.996
	c-0.342-0.2-0.732-0.308-1.139-0.308c-1.241,0-2.252,1.011-2.252,2.253v7.075c-0.567-0.477-1.292-0.748-2.042-0.748
	C0.598,10.267,0,10.866,0,11.603v10.066c0,2.674,1.167,5.077,3.019,6.73c0.022,0.03,0.049,0.059,0.08,0.085
	c0.091,0.079,0.185,0.157,0.278,0.233l1.129,0.775c0.453,0.264,0.929,0.487,1.426,0.667c0.065,0.024,0.132,0.036,0.197,0.036
	c0.238,0,0.459-0.146,0.547-0.382c0.108-0.302-0.046-0.634-0.348-0.743c-0.173-0.063-0.342-0.134-0.509-0.208
	c0.002-0.005,0.002-0.008,0.002-0.008s-0.021-0.005-0.055-0.015c-0.689-0.313-1.328-0.724-1.904-1.228
	c-0.037-0.033-0.077-0.057-0.118-0.078c-1.605-1.444-2.616-3.536-2.616-5.864v-8.197v-1.868c0-0.114,0.094-0.205,0.206-0.205
	c1.125,0,2.042,0.915,2.042,2.04v4.387c0,0.312,0.252,0.565,0.563,0.565l0,0c2.51,0,4.55,2.041,4.55,4.55
	c0,0.311,0.254,0.564,0.565,0.564c0.312,0,0.563-0.253,0.563-0.564c0-2.936-2.225-5.367-5.113-5.653V3.94
	c0-0.619,0.504-1.123,1.123-1.123S6.751,3.321,6.751,3.94c0,0.04-0.002,0.079-0.008,0.135v10.058c0,0.309,0.248,0.561,0.555,0.565
	l0.019,0.002l0.01-0.002c0.309-0.003,0.559-0.255,0.559-0.565V2.363L7.884,2.331C7.882,2.305,7.882,2.279,7.882,2.252
	c0-0.62,0.502-1.123,1.123-1.123c0.619,0,1.123,0.503,1.123,1.123c0,0.028-0.002,0.055-0.004,0.085v0.013v1.444
	c-0.004,0.049-0.006,0.097-0.006,0.146c0,0.045,0.002,0.093,0.006,0.128v10.065c0,0.313,0.252,0.565,0.563,0.565
	c0.311,0,0.565-0.252,0.565-0.565V3.844c0.049-0.577,0.539-1.026,1.119-1.026c0.619,0,1.123,0.503,1.123,1.123
	c0,0.028-0.002,0.053-0.004,0.085v11.052c0,0.305,0.242,0.555,0.543,0.564l0.031,0.001c0.006,0,0.012,0,0.018,0h0.002
	c0.301-0.01,0.545-0.26,0.545-0.564V7.457l-0.002-0.026c-0.002-0.026-0.004-0.054-0.004-0.081c0-0.619,0.505-1.123,1.123-1.123
	c0.621,0,1.125,0.503,1.125,1.123c0,0.027-0.002,0.055-0.004,0.085v14.234c0,2.238-0.938,4.257-2.435,5.694
	c-0.045,0.023-0.085,0.05-0.124,0.086c-0.769,0.715-1.658,1.259-2.638,1.617c-0.301,0.11-0.456,0.444-0.344,0.744
	c0.085,0.235,0.307,0.382,0.543,0.382c0.067,0,0.134-0.012,0.199-0.036c0.497-0.181,0.97-0.407,1.422-0.669L14.619,28.71z"/>
</svg>
