<?xml version="1.0" encoding="utf-8"?>
<!-- Generator: Adobe Illustrator 16.0.0, SVG Export Plug-In . SVG Version: 6.00 Build 0)  -->
<!DOCTYPE svg PUBLIC "-//W3C//DTD SVG 1.1//EN" "http://www.w3.org/Graphics/SVG/1.1/DTD/svg11.dtd">
<svg version="1.1" id="Слой_1" xmlns="http://www.w3.org/2000/svg" xmlns:xlink="http://www.w3.org/1999/xlink" x="0px" y="0px"
	 width="17.442px" height="23.258px" viewBox="0 0 17.442 23.258" enable-background="new 0 0 17.442 23.258" xml:space="preserve">
<path fill="#BDBBAC" d="M17.442,5.815c0,0.51-0.185,1-0.508,1.456c0-0.001,0.002-0.003,0.002-0.003
	c0.323,0.455,0.506,0.943,0.506,1.454v1.454c0,0.512-0.185,1.002-0.51,1.458c0.002-0.001,0.002-0.002,0.004-0.003
	c0.323,0.454,0.506,0.942,0.506,1.453v1.453c0,0.513-0.185,1.001-0.51,1.458c0.002-0.002,0.002-0.004,0.004-0.005
	c0.323,0.455,0.506,0.943,0.506,1.453v1.455c0,2.407-3.905,4.36-8.722,4.36c-4.815,0-8.72-1.953-8.72-4.36v-1.455
	c0-0.51,0.183-0.999,0.506-1.453c0,0.001,0,0.001,0.002,0.003C0.183,15.538,0,15.048,0,14.537v-1.453c0-0.511,0.183-1,0.506-1.453
	c0,0.001,0,0.002,0.002,0.002C0.183,11.177,0,10.687,0,10.176V8.721c0-0.511,0.183-0.999,0.506-1.454V7.27
	C0.183,6.814,0,6.325,0,5.815V4.361C0,1.954,3.905,0,8.72,0c4.817,0,8.722,1.954,8.722,4.361V5.815z M16.716,17.444
	c0-0.289-0.104-0.585-0.281-0.874c0.004-0.005,0.006-0.011,0.01-0.014c-1.457,1.39-4.367,2.342-7.726,2.342
	c-3.342,0-6.243-0.942-7.705-2.323c0,0.003,0.002,0.004,0.004,0.007c-0.173,0.287-0.293,0.577-0.293,0.861
	c0,1.72,3.283,3.635,7.994,3.635C13.433,21.079,16.716,19.163,16.716,17.444z M16.716,13.083c0-0.29-0.104-0.585-0.281-0.876
	c0.002-0.002,0.004-0.005,0.006-0.008c-1.461,1.389-4.37,2.337-7.722,2.337c-3.342,0-6.243-0.942-7.705-2.323
	c0,0.003,0.002,0.006,0.004,0.007c-0.173,0.287-0.293,0.577-0.293,0.863c0,1.719,3.283,3.634,7.994,3.634
	C13.433,16.718,16.716,14.802,16.716,13.083z M16.716,8.721c0-0.289-0.104-0.584-0.281-0.874c0-0.003,0-0.003,0.002-0.005
	c-1.46,1.387-4.367,2.333-7.717,2.333c-3.34,0-6.239-0.939-7.703-2.319c0,0.002,0.002,0.002,0.002,0.004
	C0.846,8.147,0.726,8.437,0.726,8.721c0,1.72,3.283,3.635,7.994,3.635C13.433,12.356,16.716,10.441,16.716,8.721z M16.716,4.361
	c0-0.477-0.254-0.971-0.722-1.434c-1.212-1.201-3.871-2.201-7.274-2.201c-4.711,0-7.994,1.915-7.994,3.635
	c0,1.719,3.283,3.634,7.994,3.634C13.433,7.995,16.716,6.08,16.716,4.361z"/>
</svg>
