<?xml version="1.0" encoding="utf-8"?>
<!-- Generator: Adobe Illustrator 16.0.0, SVG Export Plug-In . SVG Version: 6.00 Build 0)  -->
<!DOCTYPE svg PUBLIC "-//W3C//DTD SVG 1.1//EN" "http://www.w3.org/Graphics/SVG/1.1/DTD/svg11.dtd">
<svg version="1.1" id="Слой_1" xmlns="http://www.w3.org/2000/svg" xmlns:xlink="http://www.w3.org/1999/xlink" x="0px" y="0px"
	 width="17.997px" height="20.02px" viewBox="0 0 17.997 20.02" enable-background="new 0 0 17.997 20.02" xml:space="preserve">
<path fill="#BDBBAC" d="M17.772,1.997h-2.714V0.242C15.059,0.11,14.949,0,14.816,0h-1.655c-0.132,0-0.242,0.11-0.242,0.242v1.754
	H5.065V0.242C5.065,0.11,4.955,0,4.823,0H3.169C3.037,0,2.925,0.11,2.925,0.242v1.754H0.244C0.112,1.997,0,2.106,0,2.239v17.538
	c0,0.132,0.112,0.243,0.244,0.243H17.75c0.132,0,0.244-0.111,0.244-0.243V2.239C18.014,2.106,17.904,1.997,17.772,1.997z
	 M15.986,17.766h-0.021c0,0.132-0.112,0.242-0.244,0.242H2.231c-0.132,0-0.244-0.11-0.244-0.242V7.25
	c0-0.131,0.112-0.242,0.244-0.242h13.513c0.132,0,0.242,0.111,0.242,0.242V17.766z"/>
</svg>
