<?xml version="1.0" encoding="utf-8"?>
<!-- Generator: Adobe Illustrator 16.0.0, SVG Export Plug-In . SVG Version: 6.00 Build 0)  -->
<!DOCTYPE svg PUBLIC "-//W3C//DTD SVG 1.1//EN" "http://www.w3.org/Graphics/SVG/1.1/DTD/svg11.dtd">
<svg version="1.1" id="Слой_1" xmlns="http://www.w3.org/2000/svg" xmlns:xlink="http://www.w3.org/1999/xlink" x="0px" y="0px"
	 width="18px" height="18px" viewBox="0 0 18 18" enable-background="new 0 0 18 18" xml:space="preserve">
<path fill="#BDBBAC" d="M16.793,4.482c-0.804-1.378-1.896-2.471-3.276-3.275C12.139,0.403,10.633,0,9,0S5.861,0.403,4.483,1.207
	c-1.38,0.805-2.472,1.897-3.276,3.275C0.403,5.861,0,7.367,0,9s0.403,3.14,1.207,4.518c0.804,1.38,1.896,2.472,3.276,3.275
	C5.861,17.598,7.367,18,9,18s3.139-0.401,4.517-1.207c1.38-0.804,2.472-1.896,3.276-3.275C17.597,12.139,18,10.632,18,9
	S17.597,5.861,16.793,4.482z M15.034,12.5c-0.625,1.066-1.47,1.911-2.536,2.536C11.429,15.659,10.264,15.97,9,15.97
	s-2.431-0.312-3.498-0.935c-1.068-0.625-1.914-1.47-2.536-2.536C2.341,11.43,2.032,10.264,2.032,9c0-1.262,0.31-2.429,0.935-3.495
	C3.589,4.435,4.434,3.59,5.502,2.967C6.569,2.342,7.736,2.032,9,2.032s2.429,0.311,3.498,0.936c1.066,0.623,1.912,1.468,2.536,2.537
	C15.657,6.571,15.968,7.738,15.968,9C15.968,10.264,15.657,11.43,15.034,12.5z M10.126,4.499H9.375c-0.11,0-0.199,0.037-0.269,0.105
	C9.035,4.675,9,4.765,9,4.875V9H6.376c-0.11,0-0.2,0.035-0.271,0.106C6.036,9.174,6,9.266,6,9.375v0.751
	c0,0.109,0.037,0.199,0.105,0.269C6.176,10.465,6.266,10.5,6.376,10.5h3.75c0.108,0,0.199-0.034,0.269-0.105
	c0.071-0.069,0.106-0.159,0.106-0.269v-5.25c0-0.11-0.035-0.2-0.106-0.271C10.325,4.536,10.234,4.499,10.126,4.499z"/>
</svg>
