<?xml version="1.0" encoding="utf-8"?>
<!-- Generator: Adobe Illustrator 16.0.0, SVG Export Plug-In . SVG Version: 6.00 Build 0)  -->
<!DOCTYPE svg PUBLIC "-//W3C//DTD SVG 1.1//EN" "http://www.w3.org/Graphics/SVG/1.1/DTD/svg11.dtd">
<svg version="1.1" id="Слой_1" xmlns="http://www.w3.org/2000/svg" xmlns:xlink="http://www.w3.org/1999/xlink" x="0px" y="0px"
	 width="28px" height="37.335px" viewBox="0 0 28 37.335" enable-background="new 0 0 28 37.335" xml:space="preserve">
<path d="M27.97,10.769c0-0.186-0.066-0.369-0.203-0.505L17.724,0.211C17.587,0.073,17.403,0,17.216,0H2.15C0.964,0,0,0.968,0,2.154
	V35.18c0,1.189,0.964,2.155,2.15,2.155h23.674c1.187,0,2.175-0.968,2.175-2.157V10.769H27.97z M17.935,2.451l7.593,7.6h-7.593V2.451
	z M26.543,35.18c0,0.397-0.323,0.719-0.718,0.719H2.15c-0.395,0-0.716-0.321-0.716-0.719V2.154c0-0.396,0.321-0.718,0.716-0.718
	H16.5v9.334c0,0.395,0.319,0.716,0.716,0.716h9.327V35.18z M16.177,16.404h-4.179v6.331h-2.24l4.33,5.739l4.33-5.739h-2.24V16.404z"
	/>
</svg>
